<svg width="22" height="15" viewBox="0 0 22 15" fill="none" xmlns="http://www.w3.org/2000/svg">
<path d="M12.4999 5.5L16.4999 9.5M16.4999 5.5L12.4999 9.5M18.5949 14H8.2979C7.7763 13.9999 7.27536 13.7961 6.9019 13.432L1.5519 8.216C1.45635 8.12284 1.38041 8.01149 1.32856 7.88852C1.27671 7.76555 1.25 7.63345 1.25 7.5C1.25 7.36655 1.27671 7.23445 1.32856 7.11148C1.38041 6.98851 1.45635 6.87716 1.5519 6.784L6.9019 1.568C7.27536 1.20387 7.7763 1.00005 8.2979 1H18.5949C19.5449 1 20.8179 1.541 20.8179 2.625V12.375C20.8179 13.459 19.5449 14 18.5949 14Z" stroke="#FF8B13" strokeWidth="1.5" strokeLinecap="round" strokeLinejoin="round"/>
</svg>
